<svg width="664.68799" height="171.53999" xmlns="http://www.w3.org/2000/svg">
 <metadata id="metadata8">image/svg+xml</metadata>
 <defs>
  <clipPath clipPathUnits="userSpaceOnUse" id="clipPath18">
   <path d="m-1.25,151.405l498.516,0l0,-128.655l-498.516,0l0,128.655z" id="path16"/>
  </clipPath>
 </defs>
 <g>
  <title>background</title>
  <rect fill="none" id="canvas_background" height="402" width="582" y="-1" x="-1"/>
 </g>
 <g>
  <title>Layer 1</title>
  <g id="g10" transform="matrix(1.3333333,0,0,-1.3333333,0,171.54) ">
   <g stroke="null" id="g12">
    <g stroke="null" id="g14" clip-path="url(#clipPath18)">
     <g stroke="null" id="g20">
      <path fill="#2b2b2a" fill-rule="nonzero" d="m194.375151,65.444507l0.024836,0l0,-32.897406c-3.331473,-3.322262 -7.187898,-5.870275 -11.571534,-7.645529c-4.382507,-1.775255 -8.795495,-2.664374 -13.236706,-2.664374c-6.369424,0 -12.096487,1.794648 -17.180059,5.385436c-5.08583,3.59228 -9.073212,8.573435 -11.96666,14.944958c-2.892319,6.370031 -4.338479,13.571001 -4.338479,21.602909c0,8.030416 1.44616,15.232878 4.338479,21.602909c2.893448,6.371523 6.910181,11.352678 12.053587,14.944958c5.142277,3.589296 10.928044,5.385436 17.357301,5.385436c5.375965,0 10.255202,-1.197924 14.638837,-3.590788c4.382507,-2.394356 8.065077,-5.870275 11.044324,-10.426264l-9.114982,-11.119956c-4.383636,6.100013 -9.673803,9.150766 -15.867113,9.150766c-3.91513,0 -7.393364,-1.083054 -10.431315,-3.243196c-3.040209,-2.163125 -5.406447,-5.212386 -7.100971,-9.152258c-1.695653,-3.936888 -2.541222,-8.45409 -2.541222,-13.551607c0,-5.021434 0.845569,-9.498358 2.541222,-13.436738c1.694524,-3.93838 4.046086,-7.008526 7.056942,-9.210438c3.009728,-2.200421 6.442804,-3.301377 10.29923,-3.301377c4.090114,0 7.771555,1.159137 11.045453,3.475919l0,10.829053l-11.516217,0l0,12.932506l24.465045,0l0,-0.014918z" id="path22"/>
     </g>
     <g stroke="null" id="g24">
      <path fill="#2b2b2a" fill-rule="nonzero" d="m339.561192,86.490227l33.446814,-63.334817l68.335271,96.147191l-101.782085,-32.812373z" id="path26"/>
     </g>
     <g stroke="null" id="g28">
      <path fill="#2b2b2a" fill-rule="nonzero" d="m90.185048,55.249622l9.735894,31.050545l9.731378,-31.050545l-19.467272,0zm16.835735,49.477389l-14.029215,0l-27.357365,-81.112724l14.555297,0l5.436928,17.379593l28.498713,0l5.436928,-17.379593l14.905265,0l-27.44655,81.112724z" id="path30"/>
     </g>
     <g stroke="null" id="g32">
      <path fill="#2b2b2a" fill-rule="nonzero" d="m226.345203,55.249622l9.734765,31.050545l9.732507,-31.050545l-19.467272,0zm16.835735,49.477389l-14.030344,0l-27.356236,-81.112724l14.555297,0l5.436928,17.379593l28.498713,0l5.436928,-17.379593l14.908652,0l-27.449937,81.112724z" id="path34"/>
     </g>
     <g stroke="null" id="g36">
      <path fill="#2b2b2a" fill-rule="nonzero" d="m304.254597,61.155552l-11.573792,0l0,28.272794l11.573792,0c8.681473,0 13.065109,-5.213878 13.065109,-14.133413c0,-8.80765 -4.383636,-14.13938 -13.065109,-14.13938m14.818337,-11.467548c7.978149,4.518694 12.627084,13.439721 12.627084,25.606928c0,18.189646 -10.259717,29.431931 -26.656299,29.431931l-26.568242,0l0,-81.112724l14.205328,0l0,22.596455l12.362914,0l0.703323,0l11.837962,-22.596455l15.254104,0l-13.766174,26.073865z" id="path38"/>
     </g>
     <g stroke="null" id="g40">
      <path fill="#2b2b2a" fill-rule="nonzero" d="m485.129204,104.726266l0,-49.246158l-30.516111,49.246158l-11.748776,0l0,-81.112724l14.029215,0l0,49.246158l30.60191,-49.246158l11.662977,0l0,81.112724l-14.029215,0z" id="path42"/>
     </g>
     <g stroke="null" id="g44">
      <path fill="#2b2b2a" fill-rule="nonzero" d="m58.326982,65.459127l-24.466174,0l0,-12.932506l11.517345,0l0,-10.829053c-3.273897,-2.316782 -6.955339,-3.474427 -11.045453,-3.474427c-3.856425,0 -7.290631,1.099464 -10.29923,3.301377c-3.011986,2.200421 -5.362418,5.270567 -7.058071,9.208947c-1.694524,3.93838 -2.541222,8.416795 -2.541222,13.436738c0,5.097517 0.846698,9.614719 2.541222,13.553099c1.695653,3.93838 4.060762,6.987641 7.100971,9.150766c3.03908,2.161634 6.516185,3.243196 10.431315,3.243196c6.193311,0 11.484607,-3.050753 15.867113,-9.149274l9.116111,11.118464c-2.980376,4.555989 -6.662946,8.031908 -11.045453,10.426264c-4.382507,2.392864 -9.262872,3.590788 -14.638837,3.590788c-6.429257,0 -12.215024,-1.794648 -17.356172,-5.385436c-5.143406,-3.59228 -9.161268,-8.573435 -12.053587,-14.943466c-2.893448,-6.371523 -4.338479,-13.572492 -4.338479,-21.604401c0,-8.031908 1.445031,-15.232878 4.338479,-21.602909c2.892319,-6.371523 6.880829,-11.352678 11.965531,-14.943466c5.084701,-3.59228 10.810635,-5.386928 17.181188,-5.386928c4.441211,0 8.854199,0.889119 13.236706,2.664374c4.383636,1.775255 8.240061,4.323267 11.570405,7.645529l0,32.897406l-0.023708,0l0,0.014918z" id="path46"/>
     </g>
    </g>
   </g>
  </g>
 </g>
</svg>