<?xml version="1.0" encoding="UTF-8" standalone="no"?>
<svg
   xmlns:dc="http://purl.org/dc/elements/1.1/"
   xmlns:cc="http://creativecommons.org/ns#"
   xmlns:rdf="http://www.w3.org/1999/02/22-rdf-syntax-ns#"
   xmlns:svg="http://www.w3.org/2000/svg"
   xmlns="http://www.w3.org/2000/svg"
   viewBox="0 0 1265.3333 378.66666"
   height="378.66666"
   width="1265.3333"
   xml:space="preserve"
   id="svg2"
   version="1.1"><metadata
     id="metadata8"><rdf:RDF><cc:Work
         rdf:about=""><dc:format>image/svg+xml</dc:format><dc:type
           rdf:resource="http://purl.org/dc/dcmitype/StillImage" /></cc:Work></rdf:RDF></metadata><defs
     id="defs6"><clipPath
       id="clipPath18"
       clipPathUnits="userSpaceOnUse"><path
         id="path16"
         d="M 0,0 H 948.88 V 283.825 H 0 Z" /></clipPath></defs><g
     transform="matrix(1.3333333,0,0,-1.3333333,0,378.66667)"
     id="g10"><g
       id="g12"><g
         clip-path="url(#clipPath18)"
         id="g14"><g
           transform="translate(401.8311,94.8633)"
           id="g20"><path
             id="path22"
             style="fill:#231f20;fill-opacity:1;fill-rule:nonzero;stroke:none"
             d="m 0,0 c 0,-8.647 -3.307,-11.953 -11.445,-11.953 h -28.739 v 29.501 h 28.739 C -3.307,17.548 0,13.479 0,5.595 Z m -11.445,36.877 h -60.02 V 18.819 l 10.682,-1.525 v -72.229 h 20.599 v 23.654 h 28.739 c 23.652,0 31.791,11.953 31.791,30.517 v 7.121 c 0,17.548 -7.63,30.52 -31.791,30.52 m 443.286,0 h 7.629 v -91.812 h -20.6 v 65.11 l -42.473,-65.11 h -23.651 v 91.812 h 20.6 v -62.831 l 31.027,48.08 c 7.885,12.208 14.751,14.751 27.468,14.751 m -581.383,112.156 h 56.205 v -11.444 c 0,-9.156 -0.763,-16.785 -2.798,-23.652 h -17.548 v 15.768 h -35.859 c -10.682,0 -13.226,-2.798 -13.226,-14.497 v -24.16 c 0,-11.699 2.544,-14.497 13.226,-14.497 h 56.205 V 57.223 h -56.205 c -26.195,0 -33.825,7.629 -33.825,33.825 v 24.16 c 0,26.45 7.63,33.825 33.825,33.825 m 568.412,0 h 20.6 v -91.81 h -20.6 V 94.099 H 373.346 V 57.223 h -20.6 v 91.81 h 20.6 V 113.428 H 418.87 Z M -124.11,-35.606 h -35.606 v 17.802 h 35.606 c 6.867,0 9.41,-3.305 9.41,-8.645 0,-5.341 -2.543,-9.157 -9.41,-9.157 m 5.34,45.016 c 0,-5.597 -2.796,-8.647 -9.918,-8.647 h -31.028 v 16.531 h 31.028 c 7.122,0 9.918,-2.543 9.918,-7.884 m 11.761,-15.827 c 4.828,2.946 8.84,9.21 8.84,18.879 0,12.462 -7.121,24.415 -28.23,24.415 h -53.916 v -91.812 h 55.951 c 20.345,0 30.264,10.428 30.264,27.468 0,11.457 -6.58,18.211 -12.909,21.05 m 385.492,43.294 h 56.714 V 25.432 c 0,-9.157 -0.762,-16.786 -2.798,-23.653 h -17.548 v 15.769 h -36.368 c -10.681,0 -13.224,-2.797 -13.224,-14.496 v -24.161 c 0,-11.7 2.543,-14.497 13.224,-14.497 h 56.714 v -19.329 h -56.714 c -26.195,0 -33.825,7.63 -33.825,33.826 V 3.052 c 0,26.45 7.63,33.825 33.825,33.825 M 104.78,-21.109 c 0,-11.7 -2.543,-14.497 -13.224,-14.497 H 67.141 c -10.682,0 -13.225,2.797 -13.225,14.497 V 3.052 c 0,11.699 2.543,14.496 13.225,14.496 h 24.415 c 10.681,0 13.224,-2.797 13.224,-14.496 z M 91.556,36.877 H 67.141 c -26.196,0 -33.825,-7.375 -33.825,-33.825 v -24.161 c 0,-26.196 7.629,-33.826 33.825,-33.826 h 24.415 c 26.45,0 33.825,7.63 33.825,33.826 V 3.052 c 0,26.45 -7.375,33.825 -33.825,33.825 M -45.223,129.705 H -8.901 V 79.349 h -44.064 c 2.816,4.92 4.004,11.779 4.898,20.6 z m 56.921,19.328 h -75.025 l -4.577,-46.541 C -70.193,80.366 -73.5,76.806 -79.604,76.806 h -1.271 v -28.23 h 19.583 l 0.763,11.699 H 0 L 0.763,48.576 H 20.346 V 77.06 H 11.698 Z M 173.702,36.877 h 56.46 V 25.432 c 0,-9.157 -0.763,-16.786 -2.798,-23.653 h -17.549 v 15.769 h -36.113 c -10.682,0 -13.225,-2.797 -13.225,-14.496 v -24.161 c 0,-11.7 2.543,-14.497 13.225,-14.497 h 56.46 v -19.329 h -56.46 c -26.195,0 -33.825,7.63 -33.825,33.826 V 3.052 c 0,26.45 7.63,33.825 33.825,33.825 m 352.746,54.171 c 0,-11.699 -2.543,-14.497 -13.224,-14.497 h -22.635 c -10.682,0 -13.225,2.798 -13.225,14.497 v 24.16 c 0,11.699 2.543,14.497 13.225,14.497 h 22.635 c 10.681,0 13.224,-2.798 13.224,-14.497 z m -13.224,57.985 h -22.635 c -26.196,0 -33.825,-7.375 -33.825,-33.825 v -24.16 c 0,-26.196 10.172,-33.825 36.368,-33.825 h 17.549 c 26.449,0 36.368,7.629 36.368,33.825 v 24.16 c 0,26.45 -7.375,33.825 -33.825,33.825 M 34.842,91.048 v 24.16 c 0,26.45 7.375,33.825 33.825,33.825 h 53.916 V 129.705 H 67.649 c -10.681,0 -12.207,-1.78 -12.207,-13.479 v -3.052 h 52.136 V 94.099 H 55.442 V 90.03 c 0,-11.699 1.526,-13.479 12.207,-13.479 h 55.698 V 57.223 h -54.68 c -26.45,0 -33.825,7.629 -33.825,33.825 m 245.676,38.657 h 32.299 V 107.07 h -45.524 v 8.138 c 0,10.428 1.272,14.497 13.225,14.497 M 267.293,87.996 h 45.524 V 57.223 h 20.6 v 91.81 h -52.899 c -25.941,0 -33.825,-7.121 -33.825,-33.825 V 57.223 h 20.6 z M -280.519,36.877 h 20.6 v -91.812 h -65.869 c -26.45,0 -36.368,9.919 -36.368,36.369 v 55.443 h 20.599 v -55.951 c 0,-11.7 4.578,-16.532 15.26,-16.532 h 45.778 z m -101.475,132.248 h 141.913 V -75.026 h -141.913 z m -19.837,-263.987 h 181.587 v 283.824 h -181.587 z m 537.64,152.085 v 19.583 c 8.392,0 10.426,5.086 12.207,22.125 l 5.595,50.102 h 73.753 v -91.81 h -20.599 v 72.482 H 171.242 L 167.599,94.608 C 164.547,64.344 156.408,56.205 135.809,57.223 M 537.893,36.877 h 7.629 v -91.812 h -20.599 v 65.11 l -42.473,-65.11 h -23.651 v 91.812 h 20.598 v -62.831 l 31.029,48.08 c 7.884,12.208 14.751,14.751 27.467,14.751 m -828.584,71.973 h -50.866 v 20.855 h 50.866 c 7.628,0 11.189,-4.069 11.189,-10.173 0,-6.104 -3.052,-10.682 -11.189,-10.682 m 31.79,12.971 c 0,15.259 -7.375,27.212 -28.994,27.212 h -74.261 v -91.81 h 20.599 v 32.298 h 47.559 c 10.682,0 13.479,-3.051 13.479,-13.733 V 57.223 h 20.6 v 21.872 c 0,10.909 -3.87,17.309 -12.466,19.486 8.943,3.023 13.484,11.669 13.484,23.24" /></g></g></g></g></svg>